# xmcd CD database file
#
# Track frame offsets:
#	150
#	29640
#	52413
#	78877
#	98915
#	130980
#	162560
#	178036
#	199657
#	209434
#	239234
#	251576
#	277115
#
# Disc length: 4072 seconds
#
# Revision: 0
# Processed by: cddbd v1.5.1PL0 Copyright (c) Steve Scherf et al.
# Submitted via: CDex 1.51
#
DISCID=cd0fe60d
DTITLE=Rick Margitza - Bohemia
DYEAR=2004
DGENRE=Jazz
TTITLE0=Flat Two Girls
TTITLE1=Buhhda Bop
TTITLE2=Lost Tribe
TTITLE3=Blue Town
TTITLE4=Gypsies
TTITLE5=Bloom
TTITLE6=Down At The Beach
TTITLE7=Fable
TTITLE8=Bartok
TTITLE9=Street Of Thieves
TTITLE10=Blue Rue
TTITLE11=Gyphop
TTITLE12=Seems Like Old Times - Old Town
EXTD=YEAR: 2004
EXTT0=
EXTT1=
EXTT2=
EXTT3=
EXTT4=
EXTT5=
EXTT6=
EXTT7=
EXTT8=
EXTT9=
EXTT10=
EXTT11=
EXTT12=
PLAYORDER=
